<?xml version="1.0" encoding="UTF-8"?>
<svg width="752pt" height="752pt" version="1.1" viewBox="0 0 752 752" xmlns="http://www.w3.org/2000/svg">
 <g>
  <path d="m531.39 368.6c5.8867 0 11.535-2.3398 15.699-6.5 4.1602-4.1641 6.5-9.8125 6.5-15.699 0-5.8867-2.3398-11.535-6.5-15.695-4.1641-4.1641-9.8125-6.5039-15.699-6.5039s-11.535 2.3398-15.695 6.5039c-4.1641 4.1602-6.5039 9.8086-6.5039 15.695 0 5.8867 2.3398 11.535 6.5039 15.699 4.1602 4.1602 9.8086 6.5 15.695 6.5zm0-29.598c2.9922 0 5.6914 1.8008 6.8359 4.5664 1.1445 2.7656 0.51172 5.9492-1.6016 8.0664-2.1172 2.1133-5.3008 2.7461-8.0664 1.6016s-4.5664-3.8438-4.5664-6.8359c0-4.0859 3.3125-7.3984 7.3984-7.3984z"/>
  <path d="m575.79 420.4c5.8867 0 11.535-2.3359 15.699-6.5 4.1602-4.1641 6.5-9.8086 6.5-15.699 0-5.8867-2.3398-11.531-6.5-15.695-4.1641-4.1641-9.8125-6.5039-15.699-6.5039s-11.535 2.3398-15.695 6.5039c-4.1641 4.1641-6.5039 9.8086-6.5039 15.695 0 5.8906 2.3398 11.535 6.5039 15.699 4.1602 4.1641 9.8086 6.5 15.695 6.5zm0-29.598c2.9922 0 5.6914 1.8047 6.8359 4.5664 1.1445 2.7656 0.51172 5.9492-1.6016 8.0664-2.1172 2.1172-5.3008 2.75-8.0664 1.6016-2.7656-1.1445-4.5664-3.8398-4.5664-6.8359 0-4.0859 3.3125-7.3984 7.3984-7.3984z"/>
  <path d="m176.21 479.6c0 5.8867 2.3359 11.535 6.5 15.695 4.1641 4.1641 9.8086 6.5039 15.699 6.5039 5.8867 0 11.531-2.3398 15.695-6.5039 4.1641-4.1602 6.5039-9.8086 6.5039-15.695 0-5.8867-2.3398-11.535-6.5039-15.699-4.1641-4.1602-9.8086-6.5-15.695-6.5-5.8906 0-11.535 2.3398-15.699 6.5-4.1641 4.1641-6.5 9.8125-6.5 15.699zm29.598 0c0 2.9922-1.8047 5.6914-4.5664 6.8359-2.7656 1.1445-5.9492 0.51172-8.0664-1.6055-2.1172-2.1133-2.75-5.2969-1.6055-8.0625 1.1484-2.7656 3.8438-4.5664 6.8398-4.5664 1.9609 0 3.8438 0.77734 5.2305 2.1641 1.3867 1.3906 2.168 3.2695 2.168 5.2344z"/>
  <path d="m176.21 442.6c5.8867 0 11.531-2.3359 15.695-6.5 4.1641-4.1641 6.5039-9.8086 6.5039-15.699 0-5.8867-2.3398-11.531-6.5039-15.695s-9.8086-6.5039-15.695-6.5039c-5.8906 0-11.535 2.3398-15.699 6.5039-4.1641 4.1641-6.5 9.8086-6.5 15.695 0 5.8906 2.3359 11.535 6.5 15.699 4.1641 4.1641 9.8086 6.5 15.699 6.5zm0-29.598c2.9922 0 5.6914 1.8047 6.8359 4.5664 1.1445 2.7656 0.51172 5.9492-1.6055 8.0664-2.1172 2.1172-5.2969 2.75-8.0625 1.6016-2.7656-1.1445-4.5703-3.8438-4.5703-6.8359 0-4.0859 3.3125-7.3984 7.4023-7.3984z"/>
  <path d="m423.71 583.97-21.461-10.723h0.003906c-10.133-5.0234-18.656-12.785-24.602-22.406-5.9492-9.6211-9.082-20.715-9.0469-32.023 0.082032-22.742-10.973-44.078-29.598-57.125v-26.492c-0.019531-4.5742-1.4531-9.0312-4.1016-12.762-2.6484-3.7305-6.3867-6.5508-10.699-8.0742v-238.15c0-7.9336-4.2305-15.262-11.098-19.227-6.8711-3.9648-15.332-3.9648-22.199 0-6.8711 3.9648-11.102 11.293-11.102 19.227v238.15c-4.3125 1.5234-8.0508 4.3438-10.699 8.0742-2.6484 3.7305-4.082 8.1875-4.0977 12.762v26.203c-8.7188 5.7812-15.949 13.535-21.105 22.633-6.1289 11.258-9.0469 23.98-8.4336 36.785 0.61328 12.801 4.7305 25.188 11.902 35.809 16.645 26.008 45.492 41.629 76.367 41.363h96.66c3.4648 0.039062 6.4922-2.332 7.2891-5.7031 0.79297-3.375-0.86328-6.8477-3.9805-8.3555zm-143.9-148.77c0-4.0859 3.3125-7.3984 7.3984-7.3984h29.602c1.9609 0 3.8438 0.77734 5.2305 2.1641 1.3906 1.3906 2.168 3.2734 2.168 5.2344v18.816c-6.9883-2.5977-14.379-3.957-21.836-4.0156h-0.36328c-7.5703 0.042969-15.078 1.3867-22.199 3.9648zm-19.84 113.65c-9.1914-13.859-11.926-31.023-7.4922-47.055h27.332v14.801c0 4.0859 3.3125 7.3984 7.3984 7.3984 4.0898 0 7.4023-3.3125 7.4023-7.3984v-14.801h14.801v14.801h-0.003906c0 4.0859 3.3164 7.3984 7.4023 7.3984 4.0859 0 7.3984-3.3125 7.3984-7.3984v-14.801h26.922c1.7656 5.5 2.6719 11.242 2.6758 17.02-0.078125 25.918 13.203 50.051 35.145 63.852-22.527-2.2812-42.773-14.727-54.98-33.793-2.2266-3.2812-6.6406-4.2227-10.012-2.1406s-4.5039 6.4492-2.5703 9.9102c6.1406 9.8828 14.25 18.402 23.82 25.016-19.902-3.8242-37.348-15.684-48.223-32.785-2.2266-3.2812-6.6406-4.2227-10.012-2.1406s-4.5039 6.4492-2.5664 9.9102c6.1055 9.8164 14.164 18.277 23.676 24.855-19.844-3.8047-37.246-15.613-48.113-32.648z"/>
  <path d="m408.87 560.01c16.023 6.1094 29.527 17.426 38.344 32.137 2.0352 3.4258 2.7812 5.8477 6.7344 5.8477l121.84-0.003906c6.5391 0.003906 12.742-2.8711 16.965-7.8633 4.2227-4.9922 6.0273-11.59 4.9375-18.035-1.0117-5.2539-3.8398-9.9883-7.9883-13.371-4.1484-3.3789-9.3555-5.1953-14.707-5.1289h-3.2695c-5.2695-9.1289-14.996-14.766-25.535-14.801-4.1133 0-8.1797 0.87109-11.93 2.5625-6.5391-3.3398-14.297-3.2773-20.777 0.16797l1.043-11.938c1.0195 0.035156 2.0859 0.19141 3.0938 0.19141 1.8828 0 3.7383-0.074219 5.5586-0.22266 15.539-1.2578 26.832-7.8086 31.715-18.418 8.582-18.656-5.4844-43.184-33.578-59.621l2.6758-30.48c0.085937-1.0547-0.058594-2.1172-0.42188-3.1133 0.28516-1.625 0.42578-3.2734 0.42188-4.9219-0.011719-5.2344-1.4141-10.371-4.0625-14.883-2.6484-4.5156-6.4492-8.2461-11.012-10.809-0.65625-4.0625-2.4219-7.8672-5.1094-10.988-2.6836-3.1172-6.1836-5.4297-10.105-6.6836-1.7148-7.8438-6.5547-14.652-13.402-18.855-6.8438-4.1992-15.105-5.4336-22.879-3.4102-7.7734 2.0234-14.387 7.1211-18.32 14.125-1.293-0.1875-2.5977-0.28516-3.9062-0.29297-6.6914 0.011719-13.18 2.293-18.406 6.4648-5.2305 4.1758-8.8906 9.9961-10.387 16.516l-2.0859 0.59766v0.003906c-4.0469-4.1094-9.2109-6.9414-14.852-8.1484-5.6406-1.2109-11.508-0.74219-16.887 1.3477-5.1133 1.9102-9.5547 5.2773-12.77 9.6875-4.1719 5.4844-6.2891 12.254-5.9844 19.137 0.30078 6.8828 3 13.441 7.6328 18.543l0.28906-0.25781 5.7852 44.359c10.258 14.312 15.805 31.465 15.867 49.074-0.019532 8.5977 2.3516 17.027 6.8516 24.352 4.4961 7.3281 10.941 13.258 18.617 17.133zm111-91.836c16.707 11.715 26.113 26.949 21.586 36.785v-0.003907c-4.3164 6.4688-11.703 10.207-19.469 9.8555-2.0586 0.10938-4.1172 0.10938-6.1719 0zm-79.176-91.082v-0.003906c1.957 0.78906 4.1641 0.69922 6.0547-0.24219s3.2891-2.6484 3.8438-4.6875c1.2461-4.6523 4.6875-8.4023 9.2148-10.047 4.5234-1.6445 9.5703-0.97656 13.512 1.7891s6.2891 7.2812 6.2812 12.098c0 1.9648 0.77734 3.8477 2.168 5.2344 1.3867 1.3867 3.2695 2.168 5.2305 2.168 4.0273-0.003906 7.3164 3.2188 7.4023 7.2422l-0.10547 0.875c-0.27344 3.3594 1.7578 6.4844 4.9414 7.5898 2.8945 1.0039 5.4062 2.875 7.1875 5.3633 1.7852 2.4883 2.7539 5.4648 2.7734 8.5273h-51.797c-0.003907-6.332-2.7148-12.363-7.4453-16.574-4.7344-4.2109-11.039-6.1953-17.328-5.4609-3.1328-2.7812-6.8242-4.8555-10.828-6.0898 1.5586-3.4688 4.3828-6.207 7.8984-7.6523 3.5117-1.4492 7.4453-1.4961 10.996-0.13281zm-57.289 35.906h-12.699c-1.375-2.2227-2.1016-4.7852-2.1016-7.3984 0-3.9258 1.5586-7.6914 4.3359-10.465 2.7734-2.7773 6.5391-4.3359 10.465-4.3359 2.7695 0.023438 5.4727 0.83594 7.7969 2.3477-4.9922 5.4062-7.7773 12.492-7.7969 19.852zm41.039 9.2266c-2.5703 3.2188-6.3594 5.2227-10.465 5.5312-4.1055 0.30859-8.1562-1.1094-11.172-3.9102-3.0195-2.8008-4.7344-6.7305-4.7344-10.848s1.7148-8.0469 4.7344-10.848c3.0156-2.8008 7.0664-4.2188 11.172-3.9102 4.1055 0.30859 7.8945 2.3125 10.465 5.5312 1.9766 2.4492 5.293 3.3789 8.2578 2.3164 0.79688-0.30859 1.6445-0.47656 2.5-0.48828 4.0859 0 7.3984 3.3125 7.3984 7.3984s-3.3125 7.3984-7.3984 7.3984c-0.85547-0.011719-1.7031-0.17969-2.5-0.48828-2.9648-1.0625-6.2812-0.13281-8.2578 2.3164zm9.457 33.227c1.707-3.7148 6.1016-5.3398 9.8125-3.6289 3.7148 1.707 5.3398 6.1016 3.6328 9.8125-5.1289 11.098 8.4961 32.426 36.258 45.191 5.6406 2.5781 11.527 4.5898 17.566 6.0078l-1.332 14.859c-7.7344-1.6328-15.266-4.1172-22.457-7.3984-33.93-15.645-53.027-44.109-43.48-64.844zm147.54 125.13h-0.003906c-1.4062 1.6562-3.4688 2.6133-5.6445 2.6094h-103.59c0-3.9219 1.5586-7.6875 4.332-10.465 2.7773-2.7734 6.5391-4.332 10.465-4.332h3.7734c10.656-0.26953 20.754-4.8242 28-12.641 2.7656-2.793 7.2461-2.8906 10.133-0.22266 2.5312 2.2773 6.293 2.5312 9.1094 0.61719 2.4102-1.6523 5.2617-2.543 8.1836-2.5547 3.0469 0.019531 6.0156 0.97656 8.4961 2.7461 2.4805 1.7695 4.3555 4.2578 5.3711 7.1328 1.0469 2.9492 3.8398 4.9219 6.9688 4.9219h7.9688c3.8008-0.14062 7.1797 2.4102 8.082 6.1055 0.38672 2.168-0.21484 4.3984-1.6445 6.082z"/>
  <path d="m227.96 553.59c-1.8047 0.015625-3.5391 0.70703-4.8633 1.9336-2.5312 2.2812-6.2969 2.5391-9.1172 0.62109-2.4062-1.6602-5.2539-2.5508-8.1758-2.5547-4.0859 0-7.3984-3.3125-7.3984-7.3984-0.003906-0.5-0.054687-0.99219-0.15625-1.4805-0.53125-5.0547-3.6289-9.4805-8.1914-11.715-4.5664-2.2305-9.957-1.9609-14.277 0.71875-4.3164 2.6797-6.9531 7.3945-6.9766 12.477 0.015625 4.2812 1.9102 8.3398 5.1797 11.098 1.8242 1.5898 2.7578 3.9648 2.5 6.3672-0.25781 2.4023-1.6719 4.5273-3.7852 5.6953-2.3906 1.2617-3.8867 3.7383-3.8945 6.4375 0 1.9648 0.78125 3.8438 2.168 5.2344 1.3867 1.3867 3.2695 2.1641 5.2344 2.1641h70.91c1.8203 0.011719 3.5742 0.70703 4.9062 1.9492l0.17578 0.17188v-0.003906c2.2383 2.0234 2.9961 5.2148 1.9102 8.0312-1.0898 2.8125-3.7969 4.6641-6.8164 4.6523h-69.984c-4.8125 0.10156-9.5352-1.3047-13.508-4.0234-3.9727-2.7148-6.9961-6.6094-8.6484-11.129-2.3828-7.0742-1.0273-14.871 3.6055-20.723-3.2695-5.0312-4.9219-10.945-4.7344-16.945s2.2031-11.797 5.7773-16.617c3.0547-4.2891 7.2578-7.625 12.129-9.6211 8.0547-3.4219 17.215-3.1016 25.012 0.87109 7.8008 3.9766 13.441 11.199 15.402 19.73 1.8555 0.42578 3.6641 1.0312 5.3945 1.8125 1.918-0.97656 3.9688-1.6641 6.0859-2.043 3.0234-0.12891 5.9688 0.98047 8.1562 3.0703 2.1836 2.0938 3.4219 4.9883 3.4219 8.0156z"/>
 </g>
 <style>
    @media (prefers-color-scheme:dark){:root{filter:invert(100%)}}
  </style>
</svg>
